<?xml version="1.0" encoding="UTF-8"?>
<svg id="Layer_2" data-name="Layer 2" xmlns="http://www.w3.org/2000/svg" width="159.09" height="201.85" xmlns:xlink="http://www.w3.org/1999/xlink" viewBox="0 0 159.09 201.85">
  <defs>
    <linearGradient id="linear-gradient" x1="-5.06" y1="97.83" x2="84.06" y2="97.83" gradientTransform="translate(215.33 58.01) rotate(-149.84) scale(1 -1)" gradientUnits="userSpaceOnUse">
      <stop offset=".36" stop-color="#bbc7c9" stop-opacity="0"/>
      <stop offset="1" stop-color="#bbc7c9"/>
    </linearGradient>
    <linearGradient id="linear-gradient-2" x1="-4.69" y1="89.74" x2="132.76" y2="89.74" xlink:href="#linear-gradient"/>
    <linearGradient id="linear-gradient-3" x1="-4.62" y1="109.82" x2="180.88" y2="109.82" xlink:href="#linear-gradient"/>
  </defs>
  <g id="Layer_1-2" data-name="Layer 1">
    <path d="M141.1,195.83c-18.51-3.04-35.6-13.95-45.91-31.35-18.5-31.22-8.19-71.53,23.03-90.03,12.81-7.59,27.14-10.33,40.87-8.77l-5.34,46.63c-51.16-5.32-78.35,56.62-12.65,83.51Z" style="fill: url(#linear-gradient);"/>
    <path d="M140.82,195.6c-25.72-.23-51.62-11.09-70.12-31.85-33.2-37.25-30.03-92.28,7.07-122.91,15.22-12.57,33.78-19.08,52.68-19.81l5.21,62.33c-70.27,3.39-90.4,90.26,5.18,112.25Z" style="fill: url(#linear-gradient-2);"/>
    <path d="M140.75,195.57c-28.2,10.19-60.53,8.29-88.48-7.94C2.13,158.49-14.9,94.23,14.23,44.09,26.18,23.52,44.04,8.53,64.41,0l28.9,69.22c-75.52,32.45-65.18,140.05,47.45,126.35Z" style="fill: url(#linear-gradient-3);"/>
  </g>
</svg>