<svg xmlns="http://www.w3.org/2000/svg" width="26.55" height="37.19" viewBox="0 0 26.55 37.19"><title>starting-point</title><path d="M13.28.88A12.4,12.4,0,0,0,.88,13.28c0,6.85,12.4,23,12.4,23s12.4-16.19,12.4-23A12.4,12.4,0,0,0,13.28.88Z" style="fill:#fff;opacity:0.8"/><path d="M13.28,0A13.29,13.29,0,0,0,0,13.28c0,3,2.13,7.9,6.33,14.55l.48.75L8,30.34c2.47,3.7,4.58,6.47,4.61,6.5a.88.88,0,0,0,1.4,0s3.16-4.13,6.24-9c4.2-6.65,6.33-11.54,6.33-14.55A13.29,13.29,0,0,0,13.28,0Zm5.46,26.88c-2.18,3.44-4.37,6.49-5.46,8-1.09-1.47-3.28-4.51-5.45-7.95-4-6.27-6.06-11-6.06-13.61a11.51,11.51,0,1,1,23,0C24.79,15.91,22.7,20.61,18.74,26.88Z"/></svg>